<svg id="Capa_1" data-name="Capa 1" xmlns="http://www.w3.org/2000/svg" viewBox="0 0 144 144"><path d="M101.082,14.93A72.693,72.693,0,0,1,88.916,54.92,70.551,70.551,0,0,1,45.291,85.039a69.172,69.172,0,0,1-26.7,1.148A71.74,71.74,0,0,1-39.691,36.041a69.157,69.157,0,0,1-3.2-22.255,72.331,72.331,0,0,1,11.6-38.014A71.858,71.858,0,0,1,46.463-54.867,72.911,72.911,0,0,1,101.094,14.91Z" transform="translate(42.906 57.021)" style="fill:#070707"/><path d="M96.778,14.332a66.252,66.252,0,0,1-11.3,36.733A65.531,65.531,0,0,1,44.964,78.73a64.936,64.936,0,0,1-24.8,1.055A66.413,66.413,0,0,1-33.96,33.724a62.88,62.88,0,0,1-2.972-20.443A65.92,65.92,0,0,1-26.158-21.636,67,67,0,0,1,96.789,14.314Z" transform="translate(42.906 57.021)" style="fill:#f38eb0"/><path d="M29.565-17.586c-.263-.764-.649-1.493-1.541-1.6h-.163a1.751,1.751,0,0,0-1.645,1.041,2.167,2.167,0,0,1,.441,0,4.134,4.134,0,0,1,2.67,1.638c.134-.175.273-.345.406-.515A4.884,4.884,0,0,0,29.565-17.586Zm0,0c-.263-.764-.649-1.493-1.541-1.6h-.163a1.751,1.751,0,0,0-1.645,1.041,2.167,2.167,0,0,1,.441,0,4.134,4.134,0,0,1,2.67,1.638c.134-.175.273-.345.406-.515A4.884,4.884,0,0,0,29.565-17.586Zm0,0c-.263-.764-.649-1.493-1.541-1.6h-.163a1.751,1.751,0,0,0-1.645,1.041,2.167,2.167,0,0,1,.441,0,4.134,4.134,0,0,1,2.67,1.638c.134-.175.273-.345.406-.515A4.884,4.884,0,0,0,29.565-17.586Zm0,0c-.263-.764-.649-1.493-1.541-1.6h-.163a1.751,1.751,0,0,0-1.645,1.041,2.167,2.167,0,0,1,.441,0,4.134,4.134,0,0,1,2.67,1.638c.134-.175.273-.345.406-.515A4.884,4.884,0,0,0,29.565-17.586Zm0,0c-.263-.764-.649-1.493-1.541-1.6h-.163a1.751,1.751,0,0,0-1.645,1.041,2.167,2.167,0,0,1,.441,0,4.134,4.134,0,0,1,2.67,1.638c.134-.175.273-.345.406-.515A4.884,4.884,0,0,0,29.565-17.586Zm0,0c-.263-.764-.649-1.493-1.541-1.6h-.163a1.751,1.751,0,0,0-1.645,1.041,2.167,2.167,0,0,1,.441,0,4.134,4.134,0,0,1,2.67,1.638c.134-.175.273-.345.406-.515A4.884,4.884,0,0,0,29.565-17.586ZM64.7,49.285c-.46-1.279-.822-2.582-1.243-3.889a77.052,77.052,0,0,1-3.21-15.9c-.441-4.2-.817-8.406-1.223-12.607A37.085,37.085,0,0,0,56.548,6.053a16.8,16.8,0,0,0-8.526-9.248A29.611,29.611,0,0,0,37.5-5.762a7.226,7.226,0,0,1-.946-.2l.039-.423a15.214,15.214,0,0,1,7.505.233c2.442.54,4.81,1.415,7.223,2.154a17.232,17.232,0,0,0-1.982-1.1A29.589,29.589,0,0,0,38.809-7.663a6.877,6.877,0,0,1-.942-.195l.04-.428a15.273,15.273,0,0,1,7.505.234c1.768.394,3.5.972,5.236,1.526a29.778,29.778,0,0,0-2.477-4.788,3.387,3.387,0,0,1-.4-1.727,12.135,12.135,0,0,1,.376-1.944,17.362,17.362,0,0,0-2.1-12.68.872.872,0,0,1-.114-.973,1.649,1.649,0,0,1,.347-.408l.124-.112c.262-.238.525-.486.782-.72-.153-.413,0-.7.4-1.064,1.3-1.192,2.591-2.407,3.839-3.647l-.238-.146A15.449,15.449,0,0,1,44.5-30.121a2.4,2.4,0,0,1,.842-1.128q.684-.486,1.338-1.035a8.362,8.362,0,0,1-.877.267,2.376,2.376,0,0,1,.842-1.133A23.454,23.454,0,0,0,51.1-37.307a13.238,13.238,0,0,0,1.343-3.228c.416-1.551.678-3.136.99-4.7l-.45-.233a24.579,24.579,0,0,1-1.982,2.037,14.875,14.875,0,0,1-5.172,3.379,14.826,14.826,0,0,0-7.708,5.212c-.654.832-1.278,1.687-1.981,2.5a7.516,7.516,0,0,1-.991.832l-.406-.273c.614-1.264,1.223-2.528,1.838-3.8a30.183,30.183,0,0,0-17.006-.136L20.961-33l-.332.258a4.025,4.025,0,0,1-.852-.564A19.231,19.231,0,0,1,18.206-35.2l-.5.243L19.693-31.1l-.337.253a4.364,4.364,0,0,1-.852-.559,20.319,20.319,0,0,1-1.59-1.916A9.327,9.327,0,0,0,9.9-37.618a17.649,17.649,0,0,1-7.123-2.144,14.567,14.567,0,0,1-1.516-.973c-.495-.359-.991-.734-1.486-1.094A10.188,10.188,0,0,0,.908-36.247,12.145,12.145,0,0,0,4.559-32a28.115,28.115,0,0,0,3.805,2.358,12.142,12.142,0,0,1,1.1.734l-.133.37c-.273-.029-.54-.073-.8-.126a27.308,27.308,0,0,1-6.44-3.19,3.323,3.323,0,0,0,.753,1.381c1.486,1.317,2.972,2.611,4.553,3.831,1.154.9,1.243,1.075.5,2.261A10.033,10.033,0,0,0,6.347-19.44a14.676,14.676,0,0,0,2.3,7.6A13.594,13.594,0,0,1,9.785-8.218c.139.768.451.812,1.11.826l1.511.039c2.571.058,5.142.151,7.713.258.252,0,.5.306.862.544-2.581.205-4.954.282-7.263.608A9.376,9.376,0,0,0,7.071-2.992c-.545.7-1.11,1.386-1.645,2.091h0C5.109-.483,4.8-.055,4.515.383A21.983,21.983,0,0,0,.8,16.354a36.248,36.248,0,0,0,5.87,14.124A86.9,86.9,0,0,0,18.256,44.223a16.578,16.578,0,0,1,2.859,4.249,3.234,3.234,0,0,1,.267.661c.218.827-.238,1.245-1.243,1.862a30.449,30.449,0,0,0-3.874,2.791c-.1.092-.2.18-.3.277a4.21,4.21,0,0,0-1.486,3.593,2.463,2.463,0,0,0,2.64,2.227,7.326,7.326,0,0,1-.723-2.723,2.1,2.1,0,0,1,.709-1.385c.2-.214.4-.409.6-.6h0a6.23,6.23,0,0,1,3.819-2.052,2.557,2.557,0,0,1,.585.063c-.471.452-.872.793-1.224,1.177s-.8.783-1.2,1.176a5.07,5.07,0,0,0-1.228,1.639,1.653,1.653,0,0,0-.1.642v.165A3.269,3.269,0,0,0,21.734,60.9,13.634,13.634,0,0,1,20.8,58.25a2.15,2.15,0,0,1,.782-1.838l.526-.486A4.562,4.562,0,0,1,25.127,54.3a2.893,2.893,0,0,1,.456,0,4.924,4.924,0,0,1-.882,1.04c-.292.316-.634.623-.961.929A4.788,4.788,0,0,0,22.532,57.8a.733.733,0,0,1-.065.2,1.514,1.514,0,0,0,.2,1.036,9.726,9.726,0,0,0,1.085,1.546,2.259,2.259,0,0,0,2.621.525c-1.065-1.483-1.625-2.232-1.64-2.82s.431-.924,1.347-1.609l.719-.525c1.585-1.163,3.349-2.125,5.389-.637,2.116,1.541,4.295,3.014,6.44,4.541.991.719,1.982,1.458,2.972,2.207L39.83,58.084c-.208-.486-.416-.972-.629-1.458l.4-.248c.268.18.639.3.783.544q.861,1.416,1.7,2.83c.609,1.041,1.214,2.081,1.8,3.131.768,1.371.991,2.976,2.4,4.075,2.338,1.8,4.037,2.217,5.914,1.006a1.234,1.234,0,0,0,.451-1.084l-.109-.336c-.5-1.541-1.075-3.068-1.654-4.589-.416-1.084-.887-2.149-1.328-3.224l.406-.228c.3.223.7.384.867.671.991,1.682,1.922,3.374,2.873,5.061q.759,1.332,1.521,2.664a3.308,3.308,0,0,0,1.144,1.274A11.47,11.47,0,0,0,58.748,69a2,2,0,0,0,2.593-1.043,1.914,1.914,0,0,0,.152-.838h0a8.572,8.572,0,0,0-.436-3.185c-1.486-3.709-3.136-7.361-4.692-11.046-.594-1.42-1.357-2.431-3.195-1.77a.781.781,0,0,1-.366,0,6.2,6.2,0,0,1-6.4-5.713c-.744-.106-1.486-.238-2.259-.306a6.385,6.385,0,0,1-6.217-5.922,1.31,1.31,0,0,0-.817-.841c-.887-.262-1.838-.306-2.73-.554a6.546,6.546,0,0,1-5.087-3.933,3.517,3.517,0,0,0-3.859-2.869,4.143,4.143,0,0,1-4.057-3.4c-.139-.72,0-1.483-.094-2.212a1.5,1.5,0,0,0-.639-1.036,7.166,7.166,0,0,1-3.879-7.75,61.781,61.781,0,0,1,2.1-7.1c.114-.355.5-.627.763-.943l.193.1c.114-.35.233-.7.347-1.06s.5-.627.763-.938l.371.194c-.336,1.619-.713,3.223-.99,4.862a9.913,9.913,0,0,0,.569,6.583,1.964,1.964,0,0,0,3.181.831l2.051-1.288h0l.094.078h0l.059.043h.03l.035.03.054.034c-.168.447-.327.894-.5,1.332a6.857,6.857,0,0,0-.411,6.135,2.7,2.7,0,0,0,3.467,1.337,19.981,19.981,0,0,0,2.8-1.55c.351-.2.673-.443.991-.667l.267.171c-.149.666-.277,1.327-.446,1.983a5.431,5.431,0,0,0,8.426,5.835,13.654,13.654,0,0,1,1.67-.652c-.248.87-.4,1.376-.535,1.882a5.906,5.906,0,0,0,.168,4.633,4.255,4.255,0,0,0,5.671,1.8,4.2,4.2,0,0,0,1.542-1.319,6.606,6.606,0,0,1,1.04-.812,1.8,1.8,0,0,1,.179,1,20.355,20.355,0,0,0-.1,4.351c.3,1.658,1.615,3.092,3.166,2.917H54.1a2.3,2.3,0,0,0,.47-.165c.07-.034.144-.068.218-.112l.233-.141.119-.082.193-.151.055-.049c.2-.277.406-.549.609-.826h0c.173-.287.332-.594.495-.866.248-.355.5-.7.768-1.05a6.939,6.939,0,0,1,.614,1.142,8.616,8.616,0,0,0,4.781,5.966,2.452,2.452,0,0,0,2.169.146A2.067,2.067,0,0,0,64.7,49.285ZM28.044-20.066a5.73,5.73,0,0,0-2.834,1.42l-.2-.18a4.549,4.549,0,0,1,3.013-1.24ZM27.638-6.8a4.351,4.351,0,0,1-.629.223c.243-.783.5-1.483.708-2.168.05-.169.094-.331.134-.487a2,2,0,0,1,.064-.335c.283-1.677.431-3.379.59-5.076a2.534,2.534,0,0,0-.218-1.021c-.278-.812-.689-1.575-1.7-1.609a1.7,1.7,0,0,0-.768.151,2.362,2.362,0,0,0-1.085,1.312,7.6,7.6,0,0,0,.218,5.7l.064.185a.742.742,0,0,0,.085.228c.356.944.8,1.858,1.2,2.791-.158.049-.247.112-.3.088C24.735-7.381,23.462-7.94,22.194-8.5L21.069-8.99c-2.2-.973-4.388-1.969-6.548-3.015a17.631,17.631,0,0,1-4.162-2.824,5.537,5.537,0,0,1-.886-7.4c.52-.973,1.114-1.882-.431-2.7a4.954,4.954,0,0,1,1.917.448c.446-.856.743-1.624-.619-2.349a1.716,1.716,0,0,1,.5.03c1.372.753.991,1.56.495,2.46.837.345,1.818.817,2.863,1.376.555.291,1.125.612,1.709.948a59.591,59.591,0,0,1,5.316,3.481c.5.355.926.7,1.342,1.04.332.273.644.54.926.793a5.808,5.808,0,0,1,2.765-1.41,2.157,2.157,0,0,1,.44,0,4.142,4.142,0,0,1,2.67,1.638c.134-.175.273-.345.406-.515-.044-.18-.108-.365-.168-.54-.262-.763-.649-1.492-1.54-1.594a1.544,1.544,0,0,1,.272,0c.991.034,1.422.8,1.7,1.609l.06.16c.307-.364.624-.714.956-1.059l-.189-.195A42.148,42.148,0,0,1,46.442-29.551l-.337.369A41.455,41.455,0,0,0,31.556-18.943a46.572,46.572,0,0,1,12.879-8.372l.7-.34-.069.077c-.258.287-.5.564-.773.847l-.961,1.055a.96.96,0,0,0-.126,1.369,1.035,1.035,0,0,0,.086.089,10.96,10.96,0,0,1,1.041,1.585,5.745,5.745,0,0,1,.738,4.95h0a5.067,5.067,0,0,1-.283.607h0a6.724,6.724,0,0,1-2.387,2.349c-2.309,1.458-4.885,2.494-7.3,3.8C32.557-9.647,30.1-8.2,27.613-6.8ZM29.59-17.586c-.263-.764-.649-1.493-1.541-1.6h-.163a1.751,1.751,0,0,0-1.645,1.041,2.167,2.167,0,0,1,.441,0,4.139,4.139,0,0,1,2.67,1.638c.134-.175.272-.345.406-.515-.069-.209-.134-.394-.193-.569Zm0,0c-.263-.764-.649-1.493-1.541-1.6h-.163a1.751,1.751,0,0,0-1.645,1.041,2.167,2.167,0,0,1,.441,0,4.139,4.139,0,0,1,2.67,1.638c.134-.175.272-.345.406-.515-.069-.209-.134-.394-.193-.569Zm0,0c-.263-.764-.649-1.493-1.541-1.6h-.163a1.751,1.751,0,0,0-1.645,1.041,2.167,2.167,0,0,1,.441,0,4.139,4.139,0,0,1,2.67,1.638c.134-.175.272-.345.406-.515-.069-.209-.134-.394-.193-.569Zm0,0c-.263-.764-.649-1.493-1.541-1.6h-.163a1.751,1.751,0,0,0-1.645,1.041,2.167,2.167,0,0,1,.441,0,4.139,4.139,0,0,1,2.67,1.638c.134-.175.272-.345.406-.515-.069-.209-.134-.394-.193-.569Zm0,0c-.263-.764-.649-1.493-1.541-1.6h-.163a1.751,1.751,0,0,0-1.645,1.041,2.167,2.167,0,0,1,.441,0,4.139,4.139,0,0,1,2.67,1.638c.134-.175.272-.345.406-.515-.069-.209-.134-.394-.193-.569Z" transform="translate(42.906 57.021)" style="opacity:0.41999998688697815;isolation:isolate"/><path d="M44.7,70.822c-2.051-1.459-3.879-2.776-5.771-4.026a53.657,53.657,0,0,0-10.507-5.528c-.837-.316-1.328-1.458-1.982-2.207a.163.163,0,0,1-.054-.1c0-.943,3.165-2.81,4.082-2.373a22.015,22.015,0,0,1,7.093,5.2c2.4,2.713,4.6,5.587,6.881,8.4A3.414,3.414,0,0,1,44.7,70.822Z" transform="translate(42.906 57.021)" style="opacity:0.36000001430511475;isolation:isolate"/><path d="M-1.128,48.725a35.688,35.688,0,0,1,21.915,3.291c-1.218,1-2.412,2.008-3.65,2.961a1.011,1.011,0,0,1-.857,0A74.24,74.24,0,0,0-1.128,48.725Z" transform="translate(42.906 57.021)" style="opacity:0.6000000238418579;isolation:isolate"/><path d="M35.1-16.649a1.3,1.3,0,0,1,1.577-.91,1.4,1.4,0,0,1,.232.083,4.56,4.56,0,0,0,5.236-1.809,5.543,5.543,0,0,0,.3-2.887c-.05-.564-.2-1.085.446-1.182a1.4,1.4,0,0,1,1.08.7,4.7,4.7,0,0,1-2.781,6.108l-.117.043A6.82,6.82,0,0,1,35.1-16.649Z" transform="translate(42.906 57.021)"/><path d="M26.112-16.333A6.642,6.642,0,0,1,16.987-18l-.039-.056a3.9,3.9,0,0,1-.386-3.593c.1-.258.688-.608.787-.545.308.2.714.593.7.89a4.294,4.294,0,0,0,3.758,4.8A4.437,4.437,0,0,0,24.26-16.9C25.3-17.262,25.3-17.262,26.112-16.333Z" transform="translate(42.906 57.021)"/><path d="M32.1,54.9a20.969,20.969,0,0,0,.337,3.306,4.328,4.328,0,0,0,.872,2.173,2,2,0,0,0,1.392.423c.585-.082.872-.641.555-1.58a2.963,2.963,0,0,0-2.417-1.842c-1.214-.141-2.4.559-3.77,2.212L28.03,60.641a4.66,4.66,0,0,1-4.865.632,4.986,4.986,0,0,1-2.675-3.719,3.32,3.32,0,0,1,1.145-3.4,13.162,13.162,0,0,1,2.477-1.176,6.934,6.934,0,0,1,3.7-.487,12.457,12.457,0,0,1,3.557,1.128Z" transform="translate(42.906 57.021)" style="fill:#999"/><path d="M19.74-7.106h.347c.232,0,.46.263.777.486l.085.054c-2.581.2-4.954.287-7.263.608a21.079,21.079,0,0,0-2.615.486,7.192,7.192,0,0,0-4.033,2.46c-.872,1.118-1.793,2.2-2.561,3.4-.129.2-.262.4-.386.608h0A21.838,21.838,0,0,0,.767,16.358,36.324,36.324,0,0,0,6.642,30.482,86.9,86.9,0,0,0,18.223,44.227a16.6,16.6,0,0,1,2.859,4.249c.669,1.3.267,1.76-.991,2.523l-.059.039a30.357,30.357,0,0,0-3.815,2.752,5.313,5.313,0,0,0-1.6,2.178,3.79,3.79,0,0,0-.2,1.692,2.483,2.483,0,0,0,.624,1.405,2.534,2.534,0,0,0,1.982.822h.054l-.064-.165a6.4,6.4,0,0,1-.654-2.64h0a2.126,2.126,0,0,1,.7-1.3c1.843-1.945,3.612-2.918,5-2.592-.5.452-.872.793-1.224,1.177-.208.228-.431.447-.659.661a6.733,6.733,0,0,0-1.768,2.154.959.959,0,0,0-.07.262,3.162,3.162,0,0,0,1.125,2.7,2.924,2.924,0,0,0,1.872.768,3.123,3.123,0,0,0,.362,0c-.134-.4-.322-.812-.5-1.216a3.716,3.716,0,0,1-.431-1.881,2.31,2.31,0,0,1,.778-1.4c1.114-1.055,2.144-2.28,4-2.124a4.663,4.663,0,0,1-.877,1.04c-.267.292-.574.569-.872.851A4.328,4.328,0,0,0,22.434,58a.612.612,0,0,0,0,.171,3.753,3.753,0,0,0,.991,2.013l.317.4a2.262,2.262,0,0,0,2.62.52,10.948,10.948,0,0,1-1.59-2.528c-.232-.826.406-1.244,2.016-2.431s3.349-2.124,5.39-.637,4.231,2.976,6.336,4.478l.094.063c.728.521,1.446,1.055,2.16,1.59l.822.618-2.4-5.645.4-.243c.267.175.639.3.782.54,1.194,1.973,2.378,3.952,3.5,5.96.768,1.376.991,2.976,2.4,4.075,1.937,1.487,3.433,2.032,4.954,1.487a4.674,4.674,0,0,0,.956-.486,1.237,1.237,0,0,0,.451-1.089c-.079-.248-.159-.486-.243-.744-.495-1.405-.991-2.791-1.521-4.181-.416-1.084-.887-2.149-1.327-3.223l.406-.224c.292.219.7.379.867.666,1.486,2.567,2.907,5.163,4.394,7.726a3.319,3.319,0,0,0,1.144,1.278,11.756,11.756,0,0,0,2.383.827,2.524,2.524,0,0,0,1.446,0,1.868,1.868,0,0,0,1.3-1.887,8.517,8.517,0,0,0-.436-3.194c-1.486-3.71-3.135-7.361-4.691-11.046-.594-1.415-1.357-2.431-3.195-1.765a.873.873,0,0,1-.367,0,6.2,6.2,0,0,1-6.4-5.713c-.743-.107-1.486-.238-2.259-.306A6.386,6.386,0,0,1,37.9,39.146a1.308,1.308,0,0,0-.817-.841c-.887-.263-1.838-.306-2.73-.555a6.552,6.552,0,0,1-5.087-3.928A3.518,3.518,0,0,0,25.4,30.948a4.143,4.143,0,0,1-4.057-3.4c-.139-.715,0-1.483-.094-2.212a1.5,1.5,0,0,0-.639-1.036,7.167,7.167,0,0,1-3.879-7.75A47.154,47.154,0,0,1,18.487,10.5c.119-.35.237-.7.347-1.06s.5-.627.762-.943l.377.2c-.342,1.614-.713,3.224-.991,4.862a9.883,9.883,0,0,0,.57,6.583,1.959,1.959,0,0,0,3.175.832c.688-.428,1.367-.861,2.051-1.294l.1.078h0l.059.049.03.024h.035l.049.039c-.168.442-.322.894-.5,1.332a6.862,6.862,0,0,0-.416,6.136,2.711,2.711,0,0,0,3.468,1.337,20.449,20.449,0,0,0,2.8-1.551c.347-.2.669-.443.991-.666l.268.17c-.144.661-.278,1.327-.446,1.984a5.43,5.43,0,0,0,8.426,5.834,13.489,13.489,0,0,1,1.674-.652c-.247.871-.4,1.371-.534,1.882a5.884,5.884,0,0,0,.163,4.633,4.258,4.258,0,0,0,5.679,1.8A4.189,4.189,0,0,0,48.174,40.8a6.307,6.307,0,0,1,1.036-.812,1.763,1.763,0,0,1,.183,1,20,20,0,0,0-.1,4.347c.3,1.663,1.61,3.1,3.16,2.917h.307a2.767,2.767,0,0,0,.471-.165c.076-.034.15-.071.223-.112l.233-.146.114-.083c.062-.042.127-.091.193-.146l.054-.048a3.558,3.558,0,0,0,.624-.812c.173-.287.332-.593.52-.866.248-.355.5-.7.768-1.05a6.46,6.46,0,0,1,.609,1.143,8.631,8.631,0,0,0,4.781,5.965,2.437,2.437,0,0,0,2.17.141,1.675,1.675,0,0,0,.317-.223,2.149,2.149,0,0,0,.857-2.475c-.461-1.274-.823-2.582-1.244-3.89a76.637,76.637,0,0,1-3.21-15.9c-.441-4.2-.817-8.406-1.223-12.607A37.085,37.085,0,0,0,56.541,6.143,17.166,17.166,0,0,0,49.992-2.03a16.221,16.221,0,0,0-1.982-1.1A29.563,29.563,0,0,0,37.484-5.7a7.156,7.156,0,0,1-.941-.2l.039-.423a15.214,15.214,0,0,1,7.505.234c1.773.394,3.5.972,5.236,1.521.7.229,1.392.457,2.1.671a24.639,24.639,0,0,0-3.25-7.356,3.279,3.279,0,0,1-.4-1.726,11.919,11.919,0,0,1,.376-1.944,17.374,17.374,0,0,0-2.1-12.685,1.956,1.956,0,0,1-.159-.321c-.153-.413,0-.7.391-1.065,1.308-1.191,2.6-2.431,3.845-3.646l.386-.385a8.456,8.456,0,0,0,.991-1.458l-.3-.185A17.867,17.867,0,0,1,45.4-30.312q-.432.155-.877.267a2.382,2.382,0,0,1,.842-1.133,23.521,23.521,0,0,0,4.459-4.157,14.016,14.016,0,0,0,2.64-5.129c.416-1.556.679-3.156,1.016-4.731l-.461-.2a24.579,24.579,0,0,1-1.982,2.037,14.866,14.866,0,0,1-5.172,3.379,14.826,14.826,0,0,0-7.708,5.212c-.654.836-1.283,1.687-1.981,2.5a6.851,6.851,0,0,1-.991.831l-.4-.272q.91-1.9,1.837-3.8a28.665,28.665,0,0,0-18.888.622l.585,1.138L19.7-31.032l-.337.253a4.135,4.135,0,0,1-.852-.559,19.064,19.064,0,0,1-1.566-1.887v-.029a9.324,9.324,0,0,0-7.014-4.293,17.649,17.649,0,0,1-7.123-2.144A33.973,33.973,0,0,1-.2-41.777a10.531,10.531,0,0,0,.193,3A11.07,11.07,0,0,0,.925-36.19a16.079,16.079,0,0,0,7.461,6.6,12.646,12.646,0,0,1,1.129.759l-.223.34A21.36,21.36,0,0,1,2.105-31.8a3.332,3.332,0,0,0,.752,1.381l.422.374c1.3,1.143,2.615,2.266,3.963,3.335l.158.127c1.154.9,1.238,1.07.495,2.256a10.022,10.022,0,0,0-1.54,4.944,14.675,14.675,0,0,0,2.3,7.6A13.455,13.455,0,0,1,9.788-8.166c.138.768.455.816,1.114.826m12.914-.4c-3.111-1.381-6.227-2.747-9.283-4.23a17.793,17.793,0,0,1-4.161-2.82,5.532,5.532,0,0,1-.887-7.4c.06-.122.129-.243.188-.36.446-.856.738-1.624-.619-2.348a1.747,1.747,0,0,1,.495.029,44.22,44.22,0,0,1,13.95,8.2l.233-.18a4.541,4.541,0,0,1,3.036-1.239,4.241,4.241,0,0,1,2.606,1.633l.2-.248A42.094,42.094,0,0,1,45.156-27.643l-.342.369-1.486,1.605a1.91,1.91,0,0,0-.2.262.886.886,0,0,0-.139.584,1.228,1.228,0,0,0,.3.607,11.324,11.324,0,0,1,1.04,1.585,5.151,5.151,0,0,1-.565,6.851h0a8.26,8.26,0,0,1-1.372,1.06c-2.308,1.458-4.884,2.494-7.3,3.8-2.516,1.352-4.954,2.8-7.46,4.2a.61.61,0,0,1-.149.068l-.5.155A24.379,24.379,0,0,0,27.9-9.513c.282-1.677.43-3.379.589-5.071a1.5,1.5,0,0,0-.044-.486,4.714,4.714,0,0,0-.174-.54c-.257-.763-.644-1.493-1.54-1.6h-.158a1.746,1.746,0,0,0-1.645,1.035,3.447,3.447,0,0,0-.208.428c-.084.2-.154.389-.218.583a8.125,8.125,0,0,0,.436,5.12c.377,1.089.892,2.135,1.347,3.2h-.034c-.139.044-.218.1-.263.073ZM41.605,62.3l.372.87.3-.374c-.267-.213-.485-.384-.708-.549Z" transform="translate(42.906 57.021)"/><path d="M44.7,69.344c-2.051-1.459-3.879-2.776-5.771-4.026A53.367,53.367,0,0,0,28.421,59.8c-.837-.321-1.328-1.458-1.982-2.212a.163.163,0,0,1-.054-.1c0-.943,3.165-2.81,4.082-2.373a22.018,22.018,0,0,1,7.093,5.2c2.4,2.713,4.6,5.586,6.881,8.4A3.414,3.414,0,0,1,44.7,69.344Z" transform="translate(42.906 57.021)"/><path d="M-1.128,47.46a35.68,35.68,0,0,1,21.915,3.287c-1.218,1-2.412,2.008-3.65,2.966a1.008,1.008,0,0,1-.857-.03A74.272,74.272,0,0,0-1.128,47.46Z" transform="translate(42.906 57.021)"/><path d="M45.447-22.483a10.739,10.739,0,0,0-1.036-1.585.962.962,0,0,1-.055-1.375,1.027,1.027,0,0,1,.09-.084l.069-.078.842-.919.5-.52.416-.457-.773.37A41.38,41.38,0,0,0,30.952-16.892c-.158.189-.312.384-.466.578l-.049-.053c-.06-.068-.124-.131-.183-.2a3.515,3.515,0,0,0-2.8-1.385,5.655,5.655,0,0,0-2.839,1.419l-.2-.179a39.3,39.3,0,0,0-14.237-8.047l.055.029c1.372.754.991,1.561.5,2.461l-.114.218a5.538,5.538,0,0,0,.892,7.4,17.66,17.66,0,0,0,4.161,2.82c2.883,1.4,5.826,2.7,8.763,4,.847.379,1.7.753,2.546,1.137l.154.068h0a1.823,1.823,0,0,0,.3-.087c-.06-.141-.124-.287-.189-.428-.406-.919-.832-1.833-1.164-2.776a7.957,7.957,0,0,1-.386-5.251c.049-.151.1-.3.168-.452a4.658,4.658,0,0,1,.213-.438,1.806,1.806,0,0,1,1.368-1.016,1.764,1.764,0,0,1,.272,0c.991.034,1.427.8,1.7,1.609l.055.161a2.157,2.157,0,0,1,.163.865c-.163,1.692-.312,3.4-.594,5.071a21.8,21.8,0,0,1-.857,2.859l-.05.156a4.259,4.259,0,0,0,.634-.224c2.477-1.4,4.954-2.849,7.431-4.2,2.412-1.3,4.988-2.353,7.3-3.8.233-.146.455-.3.659-.447h0a5.173,5.173,0,0,0,1.438-7.263C45.545-22.351,45.5-22.418,45.447-22.483ZM14.129-17.85a3.966,3.966,0,0,1-.559-3.034,3.317,3.317,0,0,1,.173-.559c.1-.258.688-.608.788-.544.312.2.718.593.7.889a5.573,5.573,0,0,0,.044,1.162A4.2,4.2,0,0,0,19.96-16.33a4.279,4.279,0,0,0,.634-.124,7.381,7.381,0,0,0,.847-.234c1.035-.36,1.035-.36,1.857.569a6.2,6.2,0,0,1-1.362.705,6.612,6.612,0,0,1-7.807-2.436ZM32.28-16.44a1.3,1.3,0,0,1,1.585-.909,1.408,1.408,0,0,1,.228.082,4.559,4.559,0,0,0,5.231-1.808,5.528,5.528,0,0,0,.3-2.883c-.049-.569-.193-1.089.451-1.187a1.393,1.393,0,0,1,1.075.7,4.709,4.709,0,0,1-2.782,6.115l-.111.04a6.832,6.832,0,0,1-5.974-.146Z" transform="translate(42.906 57.021)" style="fill:#fff"/><path d="M32.285-16.44a1.3,1.3,0,0,1,1.576-.91,1.364,1.364,0,0,1,.232.083,4.55,4.55,0,0,0,5.231-1.808,5.532,5.532,0,0,0,.3-2.884c-.049-.568-.2-1.089.451-1.186a1.394,1.394,0,0,1,1.075.7,4.71,4.71,0,0,1-2.782,6.116l-.111.04A6.815,6.815,0,0,1,32.285-16.44Z" transform="translate(42.906 57.021)"/><path d="M23.3-16.119A6.652,6.652,0,0,1,14.162-17.8l-.033-.047a3.9,3.9,0,0,1-.386-3.593c.1-.258.688-.608.788-.545.312.2.718.594.7.89a4.3,4.3,0,0,0,3.758,4.8,4.435,4.435,0,0,0,2.454-.387C22.476-17.053,22.476-17.053,23.3-16.119Z" transform="translate(42.906 57.021)"/></svg>