<svg id="Capa_1" data-name="Capa 1" xmlns="http://www.w3.org/2000/svg" viewBox="0 0 1854.011 1507.326"><path d="M955.2,1595.663c699.659,0,1082.278-579.853,1082.278-1082.682q0-24.7-1.077-49.184a773.663,773.663,0,0,0,189.742-197.045,758.067,758.067,0,0,1-218.442,59.912c78.536-47.108,138.825-121.634,167.272-210.468a762.757,762.757,0,0,1-241.542,92.365A379.862,379.862,0,0,0,1655.778,88.337c-210.06,0-380.4,170.411-380.4,380.468a379.956,379.956,0,0,0,9.869,86.765C969.1,539.657,688.769,388.238,501.156,158A380.941,380.941,0,0,0,618.923,666a377.486,377.486,0,0,1-172.272-47.594c-.057,1.6-.057,3.154-.057,4.861,0,184.282,131.115,338.146,305.166,373.011a379.747,379.747,0,0,1-171.79,6.53C628.4,1154,768.819,1264.025,935.307,1267.1A762.927,762.927,0,0,1,462.87,1429.981a771.952,771.952,0,0,1-90.734-5.272c168.346,107.944,368.24,170.927,583.086,170.927" transform="translate(-372.136 -88.337)" style="fill:#ac66cc"/></svg>